<?xml version="1.0" encoding="utf-8"?>
<!-- Generator: Adobe Illustrator 16.0.0, SVG Export Plug-In . SVG Version: 6.00 Build 0)  -->
<!DOCTYPE svg PUBLIC "-//W3C//DTD SVG 1.1//EN" "http://www.w3.org/Graphics/SVG/1.1/DTD/svg11.dtd">
<svg version="1.1" id="Capa_1" xmlns="http://www.w3.org/2000/svg" xmlns:xlink="http://www.w3.org/1999/xlink" x="0px" y="0px"
	 width="364px" height="78.25px" viewBox="0 219.25 364 78.25" enable-background="new 0 219.25 364 78.25" xml:space="preserve">
<g>
	<path fill="#0E2B37" d="M105.341,246.159l-4.493,2.61c-0.563-1.177-1.165-2.035-1.805-2.572c-0.641-0.538-1.626-0.807-2.957-0.807
		c-1.562,0-2.714,0.34-3.456,1.018c-0.742,0.679-1.113,1.505-1.113,2.477c0,0.82,0.281,1.505,0.845,2.055
		c0.563,0.551,1.299,0.986,2.208,1.306c0.908,0.32,1.913,0.621,3.015,0.902c1.1,0.282,2.201,0.614,3.302,0.998
		c1.101,0.385,2.105,0.858,3.015,1.421c0.908,0.563,1.645,1.351,2.208,2.361c0.563,1.012,0.845,2.208,0.845,3.591
		c0,2.637-0.954,4.877-2.86,6.72c-1.908,1.844-4.576,2.765-8.007,2.765c-2.79,0-5.068-0.537-6.835-1.612s-3.226-2.599-4.377-4.569
		l5.567-2.766c0.614,1.332,1.325,2.323,2.131,2.977c0.807,0.652,1.978,0.979,3.514,0.979c1.613,0,2.804-0.346,3.571-1.037
		s1.152-1.536,1.152-2.534c0-1.152-0.532-2.061-1.594-2.727c-1.063-0.665-2.343-1.19-3.84-1.574
		c-1.498-0.384-3.002-0.819-4.512-1.306c-1.511-0.486-2.798-1.306-3.859-2.458c-1.063-1.151-1.594-2.662-1.594-4.531
		c0-2.585,0.922-4.806,2.765-6.662c1.844-1.855,4.479-2.783,7.91-2.783c4.173,0,7.347,1.408,9.523,4.224L105.341,246.159z"/>
	<path fill="#0E2B37" d="M137.135,240.783v29.836h-6.259V251.42l-0.537,2.995l-4.416,8.87h-4.954l-4.416-8.87l-0.537-2.995v19.199
		h-6.259v-29.836h6.259l7.449,14.898l7.411-14.898H137.135z"/>
	<path fill="#0E2B37" d="M154.837,240.783l8.602,29.836h-6.644l-1.229-4.569h-8.524l-1.229,4.569h-6.643l8.602-29.836H154.837z
		 M151.266,249.115l-0.422,2.458l-2.496,9.484h5.913l-2.496-9.484L151.266,249.115z"/>
	<path fill="#0E2B37" d="M171.886,258.178v12.441h-6.259v-29.836h12.134c3.072,0,5.472,0.806,7.2,2.419
		c1.728,1.612,2.592,3.508,2.592,5.683c0,1.485-0.403,2.861-1.21,4.128c-0.806,1.268-1.978,2.26-3.514,2.977
		c1.945,1.459,3.123,3.622,3.533,6.489l1.19,8.141h-6.451l-1.19-8.678c-0.308-2.509-1.28-3.764-2.918-3.764H171.886z
		 M171.886,245.774v7.411h5.491c1.177,0,2.093-0.364,2.745-1.094c0.653-0.729,0.979-1.594,0.979-2.592
		c0-0.999-0.326-1.869-0.979-2.611c-0.652-0.742-1.568-1.114-2.745-1.114H171.886z"/>
	<path fill="#0E2B37" d="M189.319,245.774v-4.991h20.582v4.991h-7.181v24.845H196.5v-24.845H189.319z"/>
	<path fill="#0E2B37" d="M232.134,245.391c-2.15,0-3.84,1.024-5.068,3.072s-1.844,4.468-1.844,7.258s0.602,5.203,1.806,7.238
		c1.202,2.035,2.88,3.053,5.03,3.053c2.227,0,3.941-1.318,5.146-3.956l5.567,2.766c-1.101,1.895-2.554,3.397-4.358,4.512
		c-1.805,1.113-3.885,1.67-6.239,1.67c-2.15,0-4.09-0.435-5.818-1.306c-1.728-0.87-3.129-2.035-4.204-3.494
		s-1.895-3.084-2.458-4.877c-0.563-1.791-0.845-3.673-0.845-5.645c0-1.971,0.281-3.853,0.845-5.645s1.383-3.411,2.458-4.857
		s2.47-2.604,4.186-3.476c1.715-0.869,3.647-1.305,5.798-1.305c3.994,0,7.129,1.472,9.408,4.415l-0.346,1.306l-4.569,2.649
		C235.5,246.518,234.002,245.391,232.134,245.391z"/>
	<path fill="#0E2B37" d="M256.557,240.399c2.815,0,5.241,0.735,7.276,2.207c2.035,1.473,3.52,3.322,4.454,5.549
		c0.935,2.228,1.401,4.66,1.401,7.296c0,2.663-0.479,5.152-1.439,7.469c-0.96,2.317-2.458,4.243-4.493,5.779
		s-4.435,2.304-7.199,2.304c-2.126,0-4.046-0.435-5.761-1.306c-1.715-0.87-3.104-2.035-4.166-3.494s-1.875-3.084-2.438-4.877
		c-0.563-1.791-0.845-3.673-0.845-5.645c0-1.971,0.281-3.853,0.845-5.645s1.376-3.411,2.438-4.857s2.451-2.604,4.166-3.476
		C252.511,240.835,254.431,240.399,256.557,240.399z M251.526,262.959c1.202,2.035,2.88,3.053,5.03,3.053s3.826-1.018,5.03-3.053
		c1.202-2.035,1.805-4.448,1.805-7.238s-0.603-5.21-1.805-7.258c-1.204-2.048-2.88-3.072-5.03-3.072s-3.828,1.024-5.03,3.072
		c-1.204,2.048-1.806,4.468-1.806,7.258S250.322,260.924,251.526,262.959z"/>
	<path fill="#0E2B37" d="M278.751,258.178v12.441h-6.259v-29.836h12.134c3.072,0,5.472,0.806,7.2,2.419
		c1.728,1.612,2.592,3.508,2.592,5.683c0,1.485-0.403,2.861-1.21,4.128c-0.806,1.268-1.978,2.26-3.514,2.977
		c1.945,1.459,3.123,3.622,3.533,6.489l1.19,8.141h-6.451l-1.19-8.678c-0.308-2.509-1.28-3.764-2.918-3.764H278.751z
		 M278.751,245.774v7.411h5.491c1.177,0,2.093-0.364,2.745-1.094c0.653-0.729,0.979-1.594,0.979-2.592
		c0-0.999-0.326-1.869-0.979-2.611c-0.652-0.742-1.568-1.114-2.745-1.114H278.751z"/>
	<path fill="#0E2B37" d="M303.864,258.178v7.449h14.093v4.992h-20.352v-29.836h19.929v4.991h-13.67v7.411h10.675v4.992H303.864z"/>
	<path fill="#0E2B37" d="M346.142,255.528c1.51,0.717,2.662,1.696,3.456,2.938c0.793,1.242,1.19,2.579,1.19,4.013
		c0,2.202-0.902,4.108-2.707,5.722c-1.805,1.612-4.308,2.419-7.507,2.419h-11.712v-29.836h11.327c3.072,0,5.473,0.806,7.2,2.419
		c1.728,1.612,2.592,3.508,2.592,5.683c0,1.332-0.326,2.586-0.979,3.764C348.35,253.826,347.396,254.786,346.142,255.528z
		 M335.121,253.186h4.723c1.178,0,2.087-0.364,2.727-1.094s0.96-1.594,0.96-2.592c0-0.999-0.32-1.869-0.96-2.611
		s-1.549-1.114-2.727-1.114h-4.723V253.186z M335.121,265.627h5.107c1.279,0,2.284-0.364,3.014-1.094s1.095-1.594,1.095-2.592
		c0-0.999-0.365-1.875-1.095-2.631c-0.729-0.755-1.734-1.133-3.014-1.133h-5.107V265.627z"/>
	<path fill="#0E2B37" d="M353.63,240.783h6.259v29.836h-6.259V240.783z"/>
</g>
<g>
	<g>
		<circle fill-rule="evenodd" clip-rule="evenodd" fill="#51975B" cx="22.39" cy="243.501" r="0.939"/>
		<circle fill-rule="evenodd" clip-rule="evenodd" fill="#24414A" cx="25.676" cy="245.144" r="1.877"/>
		<circle fill-rule="evenodd" clip-rule="evenodd" fill="#0E2B37" cx="23.583" cy="251.032" r="3.775"/>
	</g>
	<g>
		<path fill="#0E2B37" d="M45.5,250.818l17.969-20.871c6.861,5.337,11.107,13.467,11.107,22.832
			c0,16.109-14.076,29.169-29.076,29.169V250.818L45.5,250.818z"/>
		<path fill="#51975B" d="M45.5,223.61c11,0,16.78,5.218,16.78,5.218s-0.78,0.078-16.78,19.584V223.61z"/>
	</g>
	<g>
		<path fill-rule="evenodd" clip-rule="evenodd" fill="#259AA6" d="M12.237,273.906l6.078-3.287
			c0.001,0.003,0.002-0.061,0.004-0.059c-2.421-4.461-3.797-10.061-3.797-15.061H7.6c0,7,1.689,12.93,4.661,18.383
			C12.253,273.867,12.245,273.92,12.237,273.906z"/>
		<path fill-rule="evenodd" clip-rule="evenodd" fill="#51975B" d="M22.982,286.355c0.068,0.052,0.137,0.102,0.206,0.152
			C23.119,286.457,23.05,286.406,22.982,286.355z"/>
		<path fill-rule="evenodd" clip-rule="evenodd" fill="#51975B" d="M53.989,293.225c-0.123,0.026-0.245,0.052-0.368,0.076
			C53.745,293.276,53.867,293.251,53.989,293.225z"/>
		<path fill-rule="evenodd" clip-rule="evenodd" fill="#51975B" d="M28.656,281.908c0.066,0.044,0.131,0.088,0.198,0.13
			C28.788,281.995,28.722,281.952,28.656,281.908z"/>
		<path fill-rule="evenodd" clip-rule="evenodd" fill="#51975B" d="M53.23,293.376c-0.219,0.042-0.438,0.083-0.658,0.121
			C52.792,293.459,53.012,293.418,53.23,293.376z"/>
		<path fill-rule="evenodd" clip-rule="evenodd" fill="#51975B" d="M51.575,286.646c-0.207,0.037-0.415,0.07-0.624,0.104
			C51.16,286.717,51.368,286.683,51.575,286.646z"/>
		<path fill-rule="evenodd" clip-rule="evenodd" fill="#24414A" d="M61.062,283.335l3.276,6.003
			c11.98-6.529,20.113-18.838,20.113-33.838h-6.923c0,12-6.663,22.414-16.479,27.756"/>
		<path fill-rule="evenodd" clip-rule="evenodd" fill="#51975B" d="M54.749,293.058c-0.026,0.006-0.052,0.012-0.078,0.018
			C54.697,293.069,54.723,293.063,54.749,293.058z"/>
	</g>
	<path fill-rule="evenodd" clip-rule="evenodd" fill="#0B788D" d="M61.062,283.335c-15.309,8.269-34.49,2.57-42.746-12.716
		l-6.078,3.287c10.042,18.592,33.428,25.582,52.101,15.496"/>
	<path fill-rule="evenodd" clip-rule="evenodd" fill="#51975B" d="M9.008,254.354"/>
	<path fill-rule="evenodd" clip-rule="evenodd" fill="#96A09F" d="M20.512,263.507c1.047,4.069,3.097,7.736,5.869,10.723v-16.955
		h-5.869V263.507z"/>
	<path fill-rule="evenodd" clip-rule="evenodd" fill="#0E2B37" d="M36.5,234.5v46.227c2,0.594,4,0.974,6,1.11V234.5H36.5z"/>
	<path fill-rule="evenodd" clip-rule="evenodd" fill="#3A4E52" d="M28.5,248.5v28.801c2,1.089,4,1.994,6,2.68V248.5H28.5z"/>
	<path fill="#3E5259" d="M44.19,251.137"/>
	<path fill="#3E5259" d="M45.129,247.003"/>
	<path fill="#3E5259" d="M44.19,251.137"/>
	<path fill="none" d="M63.271,229.909"/>
	<path fill="none" d="M61.568,228.294"/>
</g>
<g>
	<path fill="none" d="M26.651,222.719"/>
	<path fill="none" d="M25.946,222.05"/>
</g>
</svg>
