<?xml version="1.0" encoding="utf-8"?>
<!-- Generator: Adobe Illustrator 16.0.0, SVG Export Plug-In . SVG Version: 6.00 Build 0)  -->
<!DOCTYPE svg PUBLIC "-//W3C//DTD SVG 1.1//EN" "http://www.w3.org/Graphics/SVG/1.1/DTD/svg11.dtd">
<svg version="1.1" id="Capa_1" xmlns="http://www.w3.org/2000/svg" xmlns:xlink="http://www.w3.org/1999/xlink" x="0px" y="0px"
	 width="364px" height="78.25px" viewBox="0 309.75 364 78.25" enable-background="new 0 309.75 364 78.25" xml:space="preserve">
<path fill="#FFFFFF" d="M52.278,9.386c-0.118-1.106-0.616-1.968-1.495-2.584c-0.87-0.616-2.001-0.925-3.395-0.925
	c-0.979,0-1.82,0.147-2.521,0.443c-0.701,0.295-1.237,0.697-1.609,1.203c-0.372,0.507-0.562,1.086-0.57,1.735
	c0,0.54,0.123,1.009,0.367,1.406c0.253,0.397,0.595,0.735,1.026,1.013c0.431,0.271,0.908,0.499,1.432,0.685
	c0.523,0.187,1.051,0.343,1.583,0.469l2.432,0.608c0.979,0.228,1.921,0.536,2.825,0.924c0.912,0.389,1.727,0.879,2.445,1.47
	c0.726,0.591,1.3,1.305,1.723,2.141c0.422,0.837,0.633,1.815,0.633,2.938c0,1.521-0.389,2.859-1.166,4.016
	c-0.777,1.148-1.9,2.049-3.37,2.699c-1.461,0.641-3.23,0.962-5.307,0.962c-2.019,0-3.771-0.313-5.257-0.938
	c-1.478-0.624-2.634-1.536-3.47-2.735c-0.828-1.199-1.275-2.66-1.343-4.383h4.624c0.068,0.903,0.347,1.654,0.836,2.254
	s1.127,1.047,1.913,1.344c0.794,0.295,1.681,0.442,2.66,0.442c1.021,0,1.917-0.151,2.686-0.456c0.777-0.313,1.385-0.742,1.824-1.291
	c0.439-0.559,0.663-1.208,0.671-1.951c-0.008-0.676-0.207-1.233-0.595-1.672c-0.389-0.448-0.933-0.82-1.634-1.115
	c-0.692-0.305-1.503-0.574-2.432-0.811l-2.952-0.76c-2.137-0.549-3.826-1.381-5.067-2.496c-1.233-1.123-1.85-2.613-1.85-4.471
	c0-1.529,0.414-2.867,1.242-4.016c0.836-1.148,1.972-2.039,3.407-2.673c1.436-0.642,3.061-0.963,4.877-0.963
	c1.841,0,3.454,0.321,4.839,0.963c1.394,0.634,2.487,1.516,3.281,2.647c0.794,1.123,1.203,2.415,1.229,3.876H52.278z"/>
<path fill="#FFFFFF" d="M69.629,28.576c-1.9,0-3.547-0.418-4.94-1.254s-2.475-2.006-3.243-3.509c-0.76-1.503-1.14-3.26-1.14-5.27
	s0.38-3.771,1.14-5.282c0.769-1.512,1.85-2.686,3.243-3.521s3.04-1.254,4.94-1.254s3.547,0.418,4.939,1.254
	c1.395,0.836,2.471,2.01,3.23,3.521c0.769,1.512,1.152,3.272,1.152,5.282s-0.384,3.767-1.152,5.27
	c-0.76,1.503-1.836,2.673-3.23,3.509C73.176,28.158,71.529,28.576,69.629,28.576z M69.654,24.902c1.029,0,1.891-0.282,2.584-0.848
	c0.692-0.574,1.207-1.344,1.545-2.307c0.347-0.962,0.52-2.034,0.52-3.217c0-1.19-0.173-2.268-0.52-3.23
	c-0.338-0.971-0.853-1.744-1.545-2.318c-0.693-0.574-1.555-0.861-2.584-0.861c-1.057,0-1.934,0.287-2.635,0.861
	c-0.693,0.574-1.212,1.348-1.559,2.318c-0.338,0.963-0.506,2.04-0.506,3.23c0,1.183,0.168,2.255,0.506,3.217
	c0.347,0.963,0.865,1.732,1.559,2.307C67.721,24.62,68.598,24.902,69.654,24.902z"/>
<path fill="#FFFFFF" d="M87.43,2.254v25.942h-4.586V2.254H87.43z"/>
<path fill="#FFFFFF" d="M92.145,28.196V8.74h4.586v19.456H92.145z M94.449,5.979c-0.726,0-1.351-0.241-1.874-0.723
	c-0.523-0.489-0.786-1.076-0.786-1.76c0-0.693,0.263-1.28,0.786-1.762C93.099,1.245,93.724,1,94.449,1
	c0.735,0,1.36,0.245,1.875,0.734c0.523,0.481,0.785,1.068,0.785,1.762c0,0.684-0.262,1.271-0.785,1.76
	C95.81,5.737,95.185,5.979,94.449,5.979z"/>
<path fill="#FFFFFF" d="M108.666,28.538c-1.529,0-2.896-0.393-4.105-1.178c-1.207-0.786-2.16-1.925-2.861-3.42
	s-1.053-3.311-1.053-5.447c0-2.161,0.355-3.985,1.064-5.472c0.719-1.495,1.686-2.623,2.9-3.383c1.217-0.768,2.572-1.152,4.066-1.152
	c1.141,0,2.078,0.194,2.813,0.582c0.734,0.381,1.318,0.841,1.748,1.381c0.431,0.532,0.765,1.035,1.001,1.508h0.19V2.254h4.598
	v25.942h-4.51v-3.065h-0.278c-0.236,0.473-0.578,0.976-1.026,1.508c-0.447,0.523-1.039,0.971-1.773,1.342
	C110.705,28.353,109.78,28.538,108.666,28.538z M109.945,24.776c0.971,0,1.799-0.262,2.482-0.786
	c0.684-0.531,1.203-1.271,1.559-2.217c0.354-0.945,0.531-2.047,0.531-3.306c0-1.258-0.178-2.352-0.531-3.28
	c-0.348-0.93-0.862-1.651-1.547-2.166c-0.674-0.516-1.506-0.773-2.494-0.773c-1.022,0-1.875,0.267-2.56,0.799
	c-0.684,0.531-1.198,1.266-1.545,2.203s-0.521,2.01-0.521,3.218c0,1.216,0.174,2.302,0.521,3.256
	c0.354,0.945,0.874,1.692,1.558,2.241C108.091,24.506,108.939,24.776,109.945,24.776z"/>
<path fill="#006BFF" d="M14.102,0H9.707c-3.09,0-5.871,1.881-7.005,4.755C1.758,7.145,0.8,9.6,0.355,10.814
	C-1.673,18.959,5.567,21.5,7.392,21.825c3.44,0.747,6.083-1.261,7.106-2.624c0.137-0.182-0.039-0.404-0.261-0.355
	c-5.145,1.141-6.435-3.274-5.672-5.034L14.102,0z"/>
<path fill="#57EBB9" d="M11.14,30h4.395c3.09,0,5.871-1.881,7.006-4.755c0.943-2.39,1.901-4.845,2.346-6.06
	c2.028-8.145-5.212-10.686-7.036-11.011c-3.44-0.747-6.083,1.261-7.106,2.624c-0.137,0.182,0.039,0.404,0.261,0.355
	c5.145-1.141,6.435,3.274,5.672,5.034L11.14,30z"/>
<g>
	<path fill="#0E2B37" d="M46.518,64.598l-2.856,1.66c-0.358-0.748-0.741-1.294-1.147-1.636c-0.407-0.342-1.034-0.513-1.88-0.513
		c-0.993,0-1.726,0.216-2.197,0.647c-0.473,0.431-0.708,0.956-0.708,1.574c0,0.521,0.179,0.956,0.537,1.307
		c0.357,0.35,0.826,0.626,1.404,0.83c0.577,0.203,1.216,0.395,1.916,0.573c0.699,0.18,1.399,0.391,2.1,0.635
		c0.699,0.244,1.339,0.546,1.916,0.903c0.578,0.358,1.046,0.858,1.404,1.502c0.357,0.643,0.537,1.403,0.537,2.282
		c0,1.677-0.606,3.101-1.818,4.272c-1.213,1.172-2.91,1.758-5.091,1.758c-1.774,0-3.223-0.342-4.346-1.025s-2.051-1.651-2.783-2.905
		l3.54-1.758c0.391,0.847,0.842,1.478,1.355,1.892c0.512,0.416,1.257,0.623,2.233,0.623c1.025,0,1.782-0.22,2.271-0.659
		s0.732-0.977,0.732-1.611c0-0.732-0.338-1.31-1.014-1.733c-0.675-0.423-1.488-0.757-2.441-1.001
		c-0.951-0.244-1.908-0.521-2.868-0.83c-0.961-0.309-1.778-0.83-2.454-1.563c-0.675-0.732-1.013-1.692-1.013-2.881
		c0-1.644,0.586-3.056,1.758-4.235c1.172-1.181,2.848-1.771,5.029-1.771c2.652,0,4.671,0.896,6.055,2.686L46.518,64.598z"/>
	<path fill="#0E2B37" d="M66.732,61.18v18.97h-3.979V67.942l-0.342,1.904l-2.808,5.64h-3.149l-2.808-5.64l-0.342-1.904v12.207
		h-3.979V61.18h3.979l4.736,9.473l4.712-9.473H66.732z"/>
	<path fill="#0E2B37" d="M77.987,61.18l5.469,18.97h-4.224l-0.781-2.905h-5.42l-0.781,2.905h-4.224l5.469-18.97H77.987z
		 M75.717,66.478l-0.269,1.563l-1.587,6.03h3.76l-1.587-6.03L75.717,66.478z"/>
	<path fill="#0E2B37" d="M88.827,72.239v7.91h-3.979V61.18h7.715c1.953,0,3.479,0.513,4.578,1.538
		c1.098,1.025,1.647,2.23,1.647,3.613c0,0.944-0.257,1.818-0.769,2.625c-0.514,0.805-1.258,1.437-2.234,1.892
		c1.236,0.928,1.985,2.304,2.246,4.126l0.757,5.176h-4.102l-0.757-5.518c-0.195-1.595-0.814-2.393-1.855-2.393H88.827z
		 M88.827,64.354v4.712h3.491c0.748,0,1.33-0.232,1.746-0.695c0.414-0.465,0.622-1.014,0.622-1.648s-0.208-1.188-0.622-1.66
		c-0.416-0.472-0.998-0.708-1.746-0.708H88.827z"/>
	<path fill="#0E2B37" d="M99.911,64.354V61.18h13.086v3.174h-4.565v15.796h-3.955V64.354H99.911z"/>
	<path fill="#0E2B37" d="M127.133,64.109c-1.367,0-2.441,0.651-3.223,1.953c-0.781,1.303-1.172,2.841-1.172,4.614
		c0,1.774,0.382,3.309,1.147,4.602c0.765,1.295,1.831,1.941,3.198,1.941c1.416,0,2.506-0.838,3.271-2.515l3.54,1.758
		c-0.7,1.205-1.624,2.161-2.771,2.868c-1.148,0.709-2.471,1.063-3.968,1.063c-1.367,0-2.601-0.276-3.698-0.83
		c-1.1-0.553-1.99-1.294-2.674-2.222s-1.205-1.961-1.563-3.101c-0.358-1.139-0.537-2.335-0.537-3.589
		c0-1.253,0.179-2.449,0.537-3.589c0.357-1.139,0.879-2.169,1.563-3.088c0.684-0.92,1.57-1.656,2.661-2.21
		c1.09-0.553,2.319-0.83,3.687-0.83c2.539,0,4.532,0.937,5.981,2.808l-0.22,0.83l-2.905,1.685
		C129.272,64.826,128.32,64.109,127.133,64.109z"/>
	<path fill="#0E2B37" d="M142.66,60.936c1.79,0,3.332,0.468,4.627,1.403c1.293,0.937,2.237,2.112,2.832,3.528
		c0.594,1.416,0.891,2.963,0.891,4.639c0,1.693-0.305,3.275-0.916,4.749c-0.609,1.473-1.563,2.697-2.855,3.674
		c-1.295,0.977-2.82,1.465-4.578,1.465c-1.352,0-2.572-0.276-3.662-0.83c-1.091-0.553-1.974-1.294-2.648-2.222
		c-0.676-0.928-1.193-1.961-1.551-3.101c-0.358-1.139-0.537-2.335-0.537-3.589c0-1.253,0.179-2.449,0.537-3.589
		c0.357-1.139,0.875-2.169,1.551-3.088c0.675-0.92,1.558-1.656,2.648-2.21C140.088,61.213,141.309,60.936,142.66,60.936z
		 M139.462,75.278c0.765,1.295,1.831,1.941,3.198,1.941s2.433-0.646,3.198-1.941c0.765-1.293,1.147-2.827,1.147-4.602
		c0-1.773-0.383-3.312-1.147-4.614c-0.766-1.302-1.831-1.953-3.198-1.953s-2.434,0.651-3.198,1.953
		c-0.766,1.303-1.147,2.841-1.147,4.614C138.314,72.451,138.696,73.985,139.462,75.278z"/>
	<path fill="#0E2B37" d="M156.771,72.239v7.91h-3.979V61.18h7.715c1.953,0,3.479,0.513,4.577,1.538
		c1.1,1.025,1.648,2.23,1.648,3.613c0,0.944-0.256,1.818-0.77,2.625c-0.512,0.805-1.257,1.437-2.233,1.892
		c1.236,0.928,1.985,2.304,2.246,4.126l0.757,5.176h-4.102l-0.757-5.518c-0.195-1.595-0.814-2.393-1.855-2.393H156.771z
		 M156.771,64.354v4.712h3.491c0.748,0,1.331-0.232,1.745-0.695c0.416-0.465,0.623-1.014,0.623-1.648s-0.207-1.188-0.623-1.66
		c-0.414-0.472-0.997-0.708-1.745-0.708H156.771z"/>
	<path fill="#0E2B37" d="M172.738,72.239v4.736h8.96v3.174h-12.939V61.18h12.671v3.174h-8.691v4.712h6.787v3.174H172.738z"/>
	<path fill="#0E2B37" d="M199.618,70.555c0.96,0.456,1.692,1.078,2.197,1.868c0.504,0.789,0.757,1.64,0.757,2.551
		c0,1.4-0.574,2.612-1.721,3.638c-1.148,1.025-2.739,1.538-4.773,1.538h-7.446V61.18h7.202c1.953,0,3.479,0.513,4.578,1.538
		c1.098,1.025,1.647,2.23,1.647,3.613c0,0.847-0.208,1.645-0.622,2.393C201.021,69.473,200.415,70.083,199.618,70.555z
		 M192.611,69.065h3.003c0.748,0,1.326-0.232,1.733-0.695c0.406-0.465,0.61-1.014,0.61-1.648s-0.204-1.188-0.61-1.66
		c-0.407-0.472-0.985-0.708-1.733-0.708h-3.003V69.065z M192.611,76.976h3.247c0.813,0,1.452-0.232,1.917-0.695
		c0.463-0.465,0.695-1.014,0.695-1.648s-0.232-1.192-0.695-1.672c-0.465-0.48-1.104-0.721-1.917-0.721h-3.247V76.976z"/>
	<path fill="#0E2B37" d="M204.379,61.18h3.979v18.97h-3.979V61.18z"/>
</g>
<g>
	<path fill="#0E2B37" d="M105.341,246.159l-4.493,2.61c-0.563-1.177-1.165-2.035-1.805-2.572c-0.641-0.538-1.626-0.807-2.957-0.807
		c-1.562,0-2.714,0.34-3.456,1.018c-0.742,0.679-1.113,1.505-1.113,2.477c0,0.82,0.281,1.505,0.845,2.055
		c0.563,0.551,1.299,0.986,2.208,1.306c0.908,0.32,1.913,0.621,3.015,0.902c1.1,0.282,2.201,0.614,3.302,0.998
		c1.101,0.385,2.105,0.858,3.015,1.421c0.908,0.563,1.645,1.351,2.208,2.361c0.563,1.012,0.845,2.208,0.845,3.591
		c0,2.637-0.954,4.877-2.86,6.72c-1.908,1.844-4.576,2.765-8.007,2.765c-2.79,0-5.068-0.537-6.835-1.612s-3.226-2.599-4.377-4.569
		l5.567-2.766c0.614,1.332,1.325,2.323,2.131,2.977c0.807,0.652,1.978,0.979,3.514,0.979c1.613,0,2.804-0.346,3.571-1.037
		s1.152-1.536,1.152-2.534c0-1.152-0.532-2.061-1.594-2.727c-1.063-0.665-2.343-1.19-3.84-1.574
		c-1.498-0.384-3.002-0.819-4.512-1.306c-1.511-0.486-2.798-1.306-3.859-2.458c-1.063-1.151-1.594-2.662-1.594-4.531
		c0-2.585,0.922-4.806,2.765-6.662c1.844-1.855,4.479-2.783,7.91-2.783c4.173,0,7.347,1.408,9.523,4.224L105.341,246.159z"/>
	<path fill="#0E2B37" d="M137.135,240.783v29.836h-6.259V251.42l-0.537,2.995l-4.416,8.87h-4.954l-4.416-8.87l-0.537-2.995v19.199
		h-6.259v-29.836h6.259l7.449,14.898l7.411-14.898H137.135z"/>
	<path fill="#0E2B37" d="M154.837,240.783l8.602,29.836h-6.644l-1.229-4.569h-8.524l-1.229,4.569h-6.643l8.602-29.836H154.837z
		 M151.266,249.115l-0.422,2.458l-2.496,9.484h5.913l-2.496-9.484L151.266,249.115z"/>
	<path fill="#0E2B37" d="M171.886,258.178v12.441h-6.259v-29.836h12.134c3.072,0,5.472,0.806,7.2,2.419
		c1.728,1.612,2.592,3.508,2.592,5.683c0,1.485-0.403,2.861-1.21,4.128c-0.806,1.268-1.978,2.26-3.514,2.977
		c1.945,1.459,3.123,3.622,3.533,6.489l1.19,8.141h-6.451l-1.19-8.678c-0.308-2.509-1.28-3.764-2.918-3.764H171.886z
		 M171.886,245.774v7.411h5.491c1.177,0,2.093-0.364,2.745-1.094c0.653-0.729,0.979-1.594,0.979-2.592
		c0-0.999-0.326-1.869-0.979-2.611c-0.652-0.742-1.568-1.114-2.745-1.114H171.886z"/>
	<path fill="#0E2B37" d="M189.319,245.774v-4.991h20.582v4.991h-7.181v24.845H196.5v-24.845H189.319z"/>
	<path fill="#0E2B37" d="M232.134,245.391c-2.15,0-3.84,1.024-5.068,3.072s-1.844,4.468-1.844,7.258s0.602,5.203,1.806,7.238
		c1.202,2.035,2.88,3.053,5.03,3.053c2.227,0,3.941-1.318,5.146-3.956l5.567,2.766c-1.101,1.895-2.554,3.397-4.358,4.512
		c-1.805,1.113-3.885,1.67-6.239,1.67c-2.15,0-4.09-0.435-5.818-1.306c-1.728-0.87-3.129-2.035-4.204-3.494
		s-1.895-3.084-2.458-4.877c-0.563-1.791-0.845-3.673-0.845-5.645c0-1.971,0.281-3.853,0.845-5.645s1.383-3.411,2.458-4.857
		s2.47-2.604,4.186-3.476c1.715-0.869,3.647-1.305,5.798-1.305c3.994,0,7.129,1.472,9.408,4.415l-0.346,1.306l-4.569,2.649
		C235.5,246.518,234.002,245.391,232.134,245.391z"/>
	<path fill="#0E2B37" d="M256.557,240.399c2.815,0,5.241,0.735,7.276,2.207c2.035,1.473,3.52,3.322,4.454,5.549
		c0.935,2.228,1.401,4.66,1.401,7.296c0,2.663-0.479,5.152-1.439,7.469c-0.96,2.317-2.458,4.243-4.493,5.779
		s-4.435,2.304-7.199,2.304c-2.126,0-4.046-0.435-5.761-1.306c-1.715-0.87-3.104-2.035-4.166-3.494s-1.875-3.084-2.438-4.877
		c-0.563-1.791-0.845-3.673-0.845-5.645c0-1.971,0.281-3.853,0.845-5.645s1.376-3.411,2.438-4.857s2.451-2.604,4.166-3.476
		C252.511,240.835,254.431,240.399,256.557,240.399z M251.526,262.959c1.202,2.035,2.88,3.053,5.03,3.053s3.826-1.018,5.03-3.053
		c1.202-2.035,1.805-4.448,1.805-7.238s-0.603-5.21-1.805-7.258c-1.204-2.048-2.88-3.072-5.03-3.072s-3.828,1.024-5.03,3.072
		c-1.204,2.048-1.806,4.468-1.806,7.258S250.322,260.924,251.526,262.959z"/>
	<path fill="#0E2B37" d="M278.751,258.178v12.441h-6.259v-29.836h12.134c3.072,0,5.472,0.806,7.2,2.419
		c1.728,1.612,2.592,3.508,2.592,5.683c0,1.485-0.403,2.861-1.21,4.128c-0.806,1.268-1.978,2.26-3.514,2.977
		c1.945,1.459,3.123,3.622,3.533,6.489l1.19,8.141h-6.451l-1.19-8.678c-0.308-2.509-1.28-3.764-2.918-3.764H278.751z
		 M278.751,245.774v7.411h5.491c1.177,0,2.093-0.364,2.745-1.094c0.653-0.729,0.979-1.594,0.979-2.592
		c0-0.999-0.326-1.869-0.979-2.611c-0.652-0.742-1.568-1.114-2.745-1.114H278.751z"/>
	<path fill="#0E2B37" d="M303.864,258.178v7.449h14.093v4.992h-20.352v-29.836h19.929v4.991h-13.67v7.411h10.675v4.992H303.864z"/>
	<path fill="#0E2B37" d="M346.142,255.528c1.51,0.717,2.662,1.696,3.456,2.938c0.793,1.242,1.19,2.579,1.19,4.013
		c0,2.202-0.902,4.108-2.707,5.722c-1.805,1.612-4.308,2.419-7.507,2.419h-11.712v-29.836h11.327c3.072,0,5.473,0.806,7.2,2.419
		c1.728,1.612,2.592,3.508,2.592,5.683c0,1.332-0.326,2.586-0.979,3.764C348.35,253.826,347.396,254.786,346.142,255.528z
		 M335.121,253.186h4.723c1.178,0,2.087-0.364,2.727-1.094s0.96-1.594,0.96-2.592c0-0.999-0.32-1.869-0.96-2.611
		s-1.549-1.114-2.727-1.114h-4.723V253.186z M335.121,265.627h5.107c1.279,0,2.284-0.364,3.014-1.094s1.095-1.594,1.095-2.592
		c0-0.999-0.365-1.875-1.095-2.631c-0.729-0.755-1.734-1.133-3.014-1.133h-5.107V265.627z"/>
	<path fill="#0E2B37" d="M353.63,240.783h6.259v29.836h-6.259V240.783z"/>
</g>
<g>
	<path fill="#0E2B37" d="M46.518,141.848l-2.856,1.66c-0.358-0.748-0.741-1.294-1.147-1.636c-0.407-0.342-1.034-0.513-1.88-0.513
		c-0.993,0-1.726,0.216-2.197,0.647c-0.473,0.431-0.708,0.956-0.708,1.574c0,0.521,0.179,0.956,0.537,1.307
		c0.357,0.35,0.826,0.626,1.404,0.83c0.577,0.203,1.216,0.395,1.916,0.573c0.699,0.18,1.399,0.391,2.1,0.635
		c0.699,0.244,1.339,0.546,1.916,0.903c0.578,0.358,1.046,0.858,1.404,1.502c0.357,0.643,0.537,1.403,0.537,2.282
		c0,1.677-0.606,3.101-1.818,4.272c-1.213,1.172-2.91,1.758-5.091,1.758c-1.774,0-3.223-0.342-4.346-1.025s-2.051-1.651-2.783-2.905
		l3.54-1.758c0.391,0.847,0.842,1.478,1.355,1.892c0.512,0.416,1.257,0.623,2.233,0.623c1.025,0,1.782-0.22,2.271-0.659
		s0.732-0.977,0.732-1.611c0-0.732-0.338-1.31-1.014-1.733c-0.675-0.423-1.488-0.757-2.441-1.001
		c-0.951-0.244-1.908-0.521-2.868-0.83c-0.961-0.309-1.778-0.83-2.454-1.563c-0.675-0.732-1.013-1.692-1.013-2.881
		c0-1.644,0.586-3.056,1.758-4.235c1.172-1.181,2.848-1.771,5.029-1.771c2.652,0,4.671,0.896,6.055,2.686L46.518,141.848z"/>
	<path fill="#0E2B37" d="M66.732,138.43v18.97h-3.979v-12.207l-0.342,1.904l-2.808,5.64h-3.149l-2.808-5.64l-0.342-1.904v12.207
		h-3.979v-18.97h3.979l4.736,9.473l4.712-9.473H66.732z"/>
	<path fill="#0E2B37" d="M77.987,138.43l5.469,18.97h-4.224l-0.781-2.905h-5.42l-0.781,2.905h-4.224l5.469-18.97H77.987z
		 M75.717,143.728l-0.269,1.563l-1.587,6.03h3.76l-1.587-6.03L75.717,143.728z"/>
	<path fill="#0E2B37" d="M88.827,149.489v7.91h-3.979v-18.97h7.715c1.953,0,3.479,0.513,4.578,1.538
		c1.098,1.025,1.647,2.23,1.647,3.613c0,0.944-0.257,1.818-0.769,2.625c-0.514,0.805-1.258,1.437-2.234,1.892
		c1.236,0.928,1.985,2.304,2.246,4.126l0.757,5.176h-4.102l-0.757-5.518c-0.195-1.595-0.814-2.393-1.855-2.393H88.827z
		 M88.827,141.604v4.712h3.491c0.748,0,1.33-0.232,1.746-0.695c0.414-0.465,0.622-1.014,0.622-1.648s-0.208-1.188-0.622-1.66
		c-0.416-0.472-0.998-0.708-1.746-0.708H88.827z"/>
	<path fill="#0E2B37" d="M99.911,141.604v-3.174h13.086v3.174h-4.565v15.796h-3.955v-15.796H99.911z"/>
	<path fill="#0E2B37" d="M127.133,141.359c-1.367,0-2.441,0.651-3.223,1.953c-0.781,1.303-1.172,2.841-1.172,4.614
		c0,1.774,0.382,3.309,1.147,4.602c0.765,1.295,1.831,1.941,3.198,1.941c1.416,0,2.506-0.838,3.271-2.515l3.54,1.758
		c-0.7,1.205-1.624,2.161-2.771,2.868c-1.148,0.709-2.471,1.063-3.968,1.063c-1.367,0-2.601-0.276-3.698-0.83
		c-1.1-0.553-1.99-1.294-2.674-2.222s-1.205-1.961-1.563-3.101c-0.358-1.139-0.537-2.335-0.537-3.589
		c0-1.253,0.179-2.449,0.537-3.589c0.357-1.139,0.879-2.169,1.563-3.088c0.684-0.92,1.57-1.656,2.661-2.21
		c1.09-0.553,2.319-0.83,3.687-0.83c2.539,0,4.532,0.937,5.981,2.808l-0.22,0.83l-2.905,1.685
		C129.272,142.076,128.32,141.359,127.133,141.359z"/>
	<path fill="#0E2B37" d="M142.66,138.186c1.79,0,3.332,0.468,4.627,1.403c1.293,0.937,2.237,2.112,2.832,3.528
		c0.594,1.416,0.891,2.963,0.891,4.639c0,1.693-0.305,3.275-0.916,4.749c-0.609,1.473-1.563,2.697-2.855,3.674
		c-1.295,0.977-2.82,1.465-4.578,1.465c-1.352,0-2.572-0.276-3.662-0.83c-1.091-0.553-1.974-1.294-2.648-2.222
		c-0.676-0.928-1.193-1.961-1.551-3.101c-0.358-1.139-0.537-2.335-0.537-3.589c0-1.253,0.179-2.449,0.537-3.589
		c0.357-1.139,0.875-2.169,1.551-3.088c0.675-0.92,1.558-1.656,2.648-2.21C140.088,138.463,141.309,138.186,142.66,138.186z
		 M139.462,152.528c0.765,1.295,1.831,1.941,3.198,1.941s2.433-0.646,3.198-1.941c0.765-1.293,1.147-2.827,1.147-4.602
		c0-1.773-0.383-3.312-1.147-4.614c-0.766-1.302-1.831-1.953-3.198-1.953s-2.434,0.651-3.198,1.953
		c-0.766,1.303-1.147,2.841-1.147,4.614C138.314,149.701,138.696,151.235,139.462,152.528z"/>
	<path fill="#0E2B37" d="M156.771,149.489v7.91h-3.979v-18.97h7.715c1.953,0,3.479,0.513,4.577,1.538
		c1.1,1.025,1.648,2.23,1.648,3.613c0,0.944-0.256,1.818-0.77,2.625c-0.512,0.805-1.257,1.437-2.233,1.892
		c1.236,0.928,1.985,2.304,2.246,4.126l0.757,5.176h-4.102l-0.757-5.518c-0.195-1.595-0.814-2.393-1.855-2.393H156.771z
		 M156.771,141.604v4.712h3.491c0.748,0,1.331-0.232,1.745-0.695c0.416-0.465,0.623-1.014,0.623-1.648s-0.207-1.188-0.623-1.66
		c-0.414-0.472-0.997-0.708-1.745-0.708H156.771z"/>
	<path fill="#0E2B37" d="M172.738,149.489v4.736h8.96v3.174h-12.939v-18.97h12.671v3.174h-8.691v4.712h6.787v3.174H172.738z"/>
	<path fill="#0E2B37" d="M199.618,147.805c0.96,0.456,1.692,1.078,2.197,1.868c0.504,0.789,0.757,1.64,0.757,2.551
		c0,1.4-0.574,2.612-1.721,3.638c-1.148,1.025-2.739,1.538-4.773,1.538h-7.446v-18.97h7.202c1.953,0,3.479,0.513,4.578,1.538
		c1.098,1.025,1.647,2.23,1.647,3.613c0,0.847-0.208,1.645-0.622,2.393C201.021,146.723,200.415,147.333,199.618,147.805z
		 M192.611,146.315h3.003c0.748,0,1.326-0.232,1.733-0.695c0.406-0.465,0.61-1.014,0.61-1.648s-0.204-1.188-0.61-1.66
		c-0.407-0.472-0.985-0.708-1.733-0.708h-3.003V146.315z M192.611,154.226h3.247c0.813,0,1.452-0.232,1.917-0.695
		c0.463-0.465,0.695-1.014,0.695-1.648s-0.232-1.192-0.695-1.672c-0.465-0.48-1.104-0.721-1.917-0.721h-3.247V154.226z"/>
	<path fill="#0E2B37" d="M204.379,138.43h3.979v18.97h-3.979V138.43z"/>
</g>
<g>
	<g>
		<circle fill-rule="evenodd" clip-rule="evenodd" fill="#51975B" cx="22.39" cy="243.501" r="0.939"/>
		<circle fill-rule="evenodd" clip-rule="evenodd" fill="#24414A" cx="25.676" cy="245.144" r="1.877"/>
		<circle fill-rule="evenodd" clip-rule="evenodd" fill="#0E2B37" cx="23.583" cy="251.032" r="3.775"/>
	</g>
	<g>
		<path fill="#0E2B37" d="M45.5,250.818l17.969-20.871c6.861,5.337,11.107,13.467,11.107,22.832
			c0,16.109-14.076,29.169-29.076,29.169V250.818L45.5,250.818z"/>
		<path fill="#51975B" d="M45.5,223.61c11,0,16.78,5.218,16.78,5.218s-0.78,0.078-16.78,19.584V223.61z"/>
	</g>
	<g>
		<path fill-rule="evenodd" clip-rule="evenodd" fill="#259AA6" d="M12.237,273.906l6.078-3.287
			c0.001,0.003,0.002-0.061,0.004-0.059c-2.421-4.461-3.797-10.061-3.797-15.061H7.6c0,7,1.689,12.93,4.661,18.383
			C12.253,273.867,12.245,273.92,12.237,273.906z"/>
		<path fill-rule="evenodd" clip-rule="evenodd" fill="#51975B" d="M22.982,286.355c0.068,0.052,0.137,0.102,0.206,0.152
			C23.119,286.457,23.05,286.406,22.982,286.355z"/>
		<path fill-rule="evenodd" clip-rule="evenodd" fill="#51975B" d="M53.989,293.225c-0.123,0.026-0.245,0.052-0.368,0.076
			C53.745,293.276,53.867,293.251,53.989,293.225z"/>
		<path fill-rule="evenodd" clip-rule="evenodd" fill="#51975B" d="M28.656,281.908c0.066,0.044,0.131,0.088,0.198,0.13
			C28.788,281.995,28.722,281.952,28.656,281.908z"/>
		<path fill-rule="evenodd" clip-rule="evenodd" fill="#51975B" d="M53.23,293.376c-0.219,0.042-0.438,0.083-0.658,0.121
			C52.792,293.459,53.012,293.418,53.23,293.376z"/>
		<path fill-rule="evenodd" clip-rule="evenodd" fill="#51975B" d="M51.575,286.646c-0.207,0.037-0.415,0.07-0.624,0.104
			C51.16,286.717,51.368,286.683,51.575,286.646z"/>
		<path fill-rule="evenodd" clip-rule="evenodd" fill="#24414A" d="M61.062,283.335l3.276,6.003
			c11.98-6.529,20.113-18.838,20.113-33.838h-6.923c0,12-6.663,22.414-16.479,27.756"/>
		<path fill-rule="evenodd" clip-rule="evenodd" fill="#51975B" d="M54.749,293.058c-0.026,0.006-0.052,0.012-0.078,0.018
			C54.697,293.069,54.723,293.063,54.749,293.058z"/>
	</g>
	<path fill-rule="evenodd" clip-rule="evenodd" fill="#0B788D" d="M61.062,283.335c-15.309,8.269-34.49,2.57-42.746-12.716
		l-6.078,3.287c10.042,18.592,33.428,25.582,52.101,15.496"/>
	<path fill-rule="evenodd" clip-rule="evenodd" fill="#51975B" d="M9.008,254.354"/>
	<path fill-rule="evenodd" clip-rule="evenodd" fill="#96A09F" d="M20.512,263.507c1.047,4.069,3.097,7.736,5.869,10.723v-16.955
		h-5.869V263.507z"/>
	<path fill-rule="evenodd" clip-rule="evenodd" fill="#0E2B37" d="M36.5,234.5v46.227c2,0.594,4,0.974,6,1.11V234.5H36.5z"/>
	<path fill-rule="evenodd" clip-rule="evenodd" fill="#3A4E52" d="M28.5,248.5v28.801c2,1.089,4,1.994,6,2.68V248.5H28.5z"/>
	<path fill="#3E5259" d="M44.19,251.137"/>
	<path fill="#3E5259" d="M45.129,247.003"/>
	<path fill="#3E5259" d="M44.19,251.137"/>
	<path fill="none" d="M63.271,229.909"/>
	<path fill="none" d="M61.568,228.294"/>
</g>
<g>
	<path fill="none" d="M26.651,222.719"/>
	<path fill="none" d="M25.946,222.05"/>
</g>
<g>
	<path fill="#FFFFFF" d="M105.341,336.659l-4.493,2.61c-0.563-1.177-1.165-2.035-1.805-2.572c-0.641-0.538-1.626-0.807-2.957-0.807
		c-1.562,0-2.714,0.34-3.456,1.018c-0.742,0.679-1.113,1.505-1.113,2.477c0,0.82,0.281,1.505,0.845,2.055
		c0.563,0.551,1.299,0.986,2.208,1.306c0.908,0.32,1.913,0.621,3.015,0.902c1.1,0.282,2.201,0.614,3.302,0.998
		c1.101,0.385,2.105,0.858,3.015,1.421c0.908,0.563,1.645,1.351,2.208,2.361c0.563,1.012,0.845,2.208,0.845,3.591
		c0,2.637-0.954,4.877-2.86,6.72c-1.908,1.844-4.576,2.765-8.007,2.765c-2.79,0-5.068-0.537-6.835-1.612s-3.226-2.599-4.377-4.569
		l5.567-2.766c0.614,1.332,1.325,2.323,2.131,2.977c0.807,0.652,1.978,0.979,3.514,0.979c1.613,0,2.804-0.346,3.571-1.037
		s1.152-1.536,1.152-2.534c0-1.152-0.532-2.061-1.594-2.727c-1.063-0.665-2.343-1.19-3.84-1.574
		c-1.498-0.384-3.002-0.819-4.512-1.306c-1.511-0.486-2.798-1.306-3.859-2.458c-1.063-1.151-1.594-2.662-1.594-4.531
		c0-2.585,0.922-4.806,2.765-6.662c1.844-1.855,4.479-2.783,7.91-2.783c4.173,0,7.347,1.408,9.523,4.224L105.341,336.659z"/>
	<path fill="#FFFFFF" d="M137.135,331.283v29.836h-6.259V341.92l-0.537,2.995l-4.416,8.87h-4.954l-4.416-8.87l-0.537-2.995v19.199
		h-6.259v-29.836h6.259l7.449,14.898l7.411-14.898H137.135z"/>
	<path fill="#FFFFFF" d="M154.837,331.283l8.602,29.836h-6.644l-1.229-4.569h-8.524l-1.229,4.569h-6.643l8.602-29.836H154.837z
		 M151.266,339.615l-0.422,2.458l-2.496,9.484h5.913l-2.496-9.484L151.266,339.615z"/>
	<path fill="#FFFFFF" d="M171.886,348.678v12.441h-6.259v-29.836h12.134c3.072,0,5.472,0.806,7.2,2.419
		c1.728,1.612,2.592,3.508,2.592,5.683c0,1.485-0.403,2.861-1.21,4.128c-0.806,1.268-1.978,2.26-3.514,2.977
		c1.945,1.459,3.123,3.622,3.533,6.489l1.19,8.141h-6.451l-1.19-8.678c-0.308-2.509-1.28-3.764-2.918-3.764H171.886z
		 M171.886,336.274v7.411h5.491c1.177,0,2.093-0.364,2.745-1.094c0.653-0.729,0.979-1.594,0.979-2.592
		c0-0.999-0.326-1.869-0.979-2.611c-0.652-0.742-1.568-1.114-2.745-1.114H171.886z"/>
	<path fill="#FFFFFF" d="M189.319,336.274v-4.991h20.582v4.991h-7.181v24.845H196.5v-24.845H189.319z"/>
	<path fill="#FFFFFF" d="M232.134,335.891c-2.15,0-3.84,1.024-5.068,3.072s-1.844,4.468-1.844,7.258s0.602,5.203,1.806,7.238
		c1.202,2.035,2.88,3.053,5.03,3.053c2.227,0,3.941-1.318,5.146-3.956l5.567,2.766c-1.101,1.895-2.554,3.397-4.358,4.512
		c-1.805,1.113-3.885,1.67-6.239,1.67c-2.15,0-4.09-0.435-5.818-1.306c-1.728-0.87-3.129-2.035-4.204-3.494
		s-1.895-3.084-2.458-4.877c-0.563-1.791-0.845-3.673-0.845-5.645c0-1.971,0.281-3.853,0.845-5.645s1.383-3.411,2.458-4.857
		s2.47-2.604,4.186-3.476c1.715-0.869,3.647-1.305,5.798-1.305c3.994,0,7.129,1.472,9.408,4.415l-0.346,1.306l-4.569,2.649
		C235.5,337.018,234.002,335.891,232.134,335.891z"/>
	<path fill="#FFFFFF" d="M256.557,330.899c2.815,0,5.241,0.735,7.276,2.207c2.035,1.473,3.52,3.322,4.454,5.549
		c0.935,2.228,1.401,4.66,1.401,7.296c0,2.663-0.479,5.152-1.439,7.469c-0.96,2.317-2.458,4.243-4.493,5.779
		s-4.435,2.304-7.199,2.304c-2.126,0-4.046-0.435-5.761-1.306c-1.715-0.87-3.104-2.035-4.166-3.494s-1.875-3.084-2.438-4.877
		c-0.563-1.791-0.845-3.673-0.845-5.645c0-1.971,0.281-3.853,0.845-5.645s1.376-3.411,2.438-4.857s2.451-2.604,4.166-3.476
		C252.511,331.335,254.431,330.899,256.557,330.899z M251.526,353.459c1.202,2.035,2.88,3.053,5.03,3.053s3.826-1.018,5.03-3.053
		c1.202-2.035,1.805-4.448,1.805-7.238s-0.603-5.21-1.805-7.258c-1.204-2.048-2.88-3.072-5.03-3.072s-3.828,1.024-5.03,3.072
		c-1.204,2.048-1.806,4.468-1.806,7.258S250.322,351.424,251.526,353.459z"/>
	<path fill="#FFFFFF" d="M278.751,348.678v12.441h-6.259v-29.836h12.134c3.072,0,5.472,0.806,7.2,2.419
		c1.728,1.612,2.592,3.508,2.592,5.683c0,1.485-0.403,2.861-1.21,4.128c-0.806,1.268-1.978,2.26-3.514,2.977
		c1.945,1.459,3.123,3.622,3.533,6.489l1.19,8.141h-6.451l-1.19-8.678c-0.308-2.509-1.28-3.764-2.918-3.764H278.751z
		 M278.751,336.274v7.411h5.491c1.177,0,2.093-0.364,2.745-1.094c0.653-0.729,0.979-1.594,0.979-2.592
		c0-0.999-0.326-1.869-0.979-2.611c-0.652-0.742-1.568-1.114-2.745-1.114H278.751z"/>
	<path fill="#FFFFFF" d="M303.864,348.678v7.449h14.093v4.992h-20.352v-29.836h19.929v4.991h-13.67v7.411h10.675v4.992H303.864z"/>
	<path fill="#FFFFFF" d="M346.142,346.028c1.51,0.717,2.662,1.696,3.456,2.938c0.793,1.242,1.19,2.579,1.19,4.013
		c0,2.202-0.902,4.108-2.707,5.722c-1.805,1.612-4.308,2.419-7.507,2.419h-11.712v-29.836h11.327c3.072,0,5.473,0.806,7.2,2.419
		c1.728,1.612,2.592,3.508,2.592,5.683c0,1.332-0.326,2.586-0.979,3.764C348.35,344.326,347.396,345.286,346.142,346.028z
		 M335.121,343.686h4.723c1.178,0,2.087-0.364,2.727-1.094s0.96-1.594,0.96-2.592c0-0.999-0.32-1.869-0.96-2.611
		s-1.549-1.114-2.727-1.114h-4.723V343.686z M335.121,356.127h5.107c1.279,0,2.284-0.364,3.014-1.094s1.095-1.594,1.095-2.592
		c0-0.999-0.365-1.875-1.095-2.631c-0.729-0.755-1.734-1.133-3.014-1.133h-5.107V356.127z"/>
	<path fill="#FFFFFF" d="M353.63,331.283h6.259v29.836h-6.259V331.283z"/>
</g>
<g>
	<g>
		<circle fill-rule="evenodd" clip-rule="evenodd" fill="#FFFFFF" cx="22.39" cy="334.001" r="0.939"/>
		<circle fill-rule="evenodd" clip-rule="evenodd" fill="#FFFFFF" cx="25.676" cy="335.644" r="1.877"/>
		<circle fill-rule="evenodd" clip-rule="evenodd" fill="#FFFFFF" cx="23.583" cy="341.532" r="3.775"/>
	</g>
	<g>
		<path fill="#FFFFFF" d="M45.5,341.318l17.969-20.871c6.861,5.337,11.107,13.467,11.107,22.832
			c0,16.109-14.076,29.169-29.076,29.169V341.318L45.5,341.318z"/>
		<path fill="#FFFFFF" d="M45.5,314.11c11,0,16.78,5.218,16.78,5.218s-0.78,0.078-16.78,19.584V314.11z"/>
	</g>
	<g>
		<path fill-rule="evenodd" clip-rule="evenodd" fill="#FFFFFF" d="M12.237,364.406l6.078-3.287
			c0.001,0.003,0.002,0.189,0.004,0.191c-2.421-4.461-3.797-9.811-3.797-14.811H7.6c0,7,1.689,12.68,4.661,18.133
			C12.253,364.617,12.245,364.42,12.237,364.406z"/>
		<path fill-rule="evenodd" clip-rule="evenodd" fill="#51975B" d="M22.982,376.855c0.068,0.052,0.137,0.102,0.206,0.152
			C23.119,376.957,23.05,376.906,22.982,376.855z"/>
		<path fill-rule="evenodd" clip-rule="evenodd" fill="#51975B" d="M53.989,383.725c-0.123,0.026-0.245,0.052-0.368,0.076
			C53.745,383.776,53.867,383.751,53.989,383.725z"/>
		<path fill-rule="evenodd" clip-rule="evenodd" fill="#51975B" d="M28.656,372.408c0.066,0.044,0.131,0.088,0.198,0.13
			C28.788,372.495,28.722,372.452,28.656,372.408z"/>
		<path fill-rule="evenodd" clip-rule="evenodd" fill="#51975B" d="M53.23,383.876c-0.219,0.042-0.438,0.083-0.658,0.121
			C52.792,383.959,53.012,383.918,53.23,383.876z"/>
		<path fill-rule="evenodd" clip-rule="evenodd" fill="#51975B" d="M51.575,377.146c-0.207,0.037-0.415,0.07-0.624,0.104
			C51.16,377.217,51.368,377.183,51.575,377.146z"/>
		<path fill-rule="evenodd" clip-rule="evenodd" fill="#FFFFFF" d="M61.062,373.835l3.276,6.253
			c11.98-6.529,20.113-18.588,20.113-33.588h-6.923c0,12-6.663,22.164-16.479,27.506"/>
		<path fill-rule="evenodd" clip-rule="evenodd" fill="#51975B" d="M54.749,383.558c-0.026,0.006-0.052,0.012-0.078,0.018
			C54.697,383.569,54.723,383.563,54.749,383.558z"/>
	</g>
	<path fill-rule="evenodd" clip-rule="evenodd" fill="#FFFFFF" d="M61.062,373.835c-15.309,8.269-34.49,2.57-42.746-12.716
		l-6.078,3.287c10.042,18.592,33.428,25.582,52.101,15.496"/>
	<path fill-rule="evenodd" clip-rule="evenodd" fill="#51975B" d="M9.008,344.854"/>
	<path fill-rule="evenodd" clip-rule="evenodd" fill="#FFFFFF" d="M20.512,354.007c1.047,4.069,3.097,7.736,5.869,10.723v-16.955
		h-5.869V354.007z"/>
	<path fill-rule="evenodd" clip-rule="evenodd" fill="#FFFFFF" d="M36.5,325.5v45.727c2,0.594,4,0.974,6,1.11V325.5H36.5z"/>
	<path fill-rule="evenodd" clip-rule="evenodd" fill="#FFFFFF" d="M28.5,339.5v28.301c2,1.089,4,1.994,6,2.68V339.5H28.5z"/>
	<path fill="#3E5259" d="M44.19,341.637"/>
	<path fill="#3E5259" d="M45.129,337.503"/>
	<path fill="#3E5259" d="M44.19,341.637"/>
	<path fill="none" d="M63.271,320.409"/>
	<path fill="none" d="M61.568,318.794"/>
</g>
<g>
	<path fill="none" d="M26.651,313.219"/>
	<path fill="none" d="M25.946,312.55"/>
</g>
</svg>
